<svg width="60" height="60" viewBox="0 0 60 60" fill="none" xmlns="http://www.w3.org/2000/svg">
<rect width="60" height="60" rx="10" fill="#1ECC7D"/>
<path d="M40.0796 28.6235C40.0484 28.6235 40.0234 28.6173 39.9921 28.6173C39.4422 28.6173 38.9922 29.0673 38.9922 29.6172C38.9922 30.1672 39.4422 30.6172 39.9921 30.6172C40.2296 30.6172 40.4546 30.5359 40.6359 30.3859C41.0609 30.0297 41.1109 29.3985 40.7609 28.9798C40.5859 28.7735 40.3421 28.6485 40.0796 28.6235L40.0796 28.6235Z" fill="white"/>
<path d="M35.0249 29.6046C34.9937 29.6046 34.9687 29.5984 34.9374 29.5984C34.3812 29.5984 33.9375 30.0483 33.9375 30.5983C33.9375 31.1545 34.3875 31.5983 34.9374 31.5983C35.4937 31.5983 35.9374 31.1483 35.9374 30.5983C35.9436 30.0858 35.5437 29.6484 35.0249 29.6046L35.0249 29.6046Z" fill="white"/>
<path d="M44.9175 31.3422C44.6175 29.1486 43.5238 26.8299 41.8302 24.8174C39.6428 22.2113 36.8117 20.5364 34.2243 20.2926C34.0805 19.9426 33.8868 19.6114 33.6555 19.3052L31.8369 16.9178C30.7557 15.4992 28.8996 14.8304 26.6121 15.0367C24.406 15.2304 22.0374 16.2179 19.9439 17.8115C17.8565 19.3989 16.2753 21.4238 15.5066 23.4987C14.7067 25.6548 14.8567 27.6235 15.9379 29.0359L16.9816 30.4046C16.7754 30.692 16.6004 30.9983 16.4691 31.3233L15.3317 34.0981C14.6568 35.748 15.0192 37.6854 16.3567 39.5603C17.6441 41.3665 19.694 42.9039 22.1249 43.9039C23.8998 44.6289 25.7373 45.0038 27.4434 45.0038C28.0621 45.0038 28.6746 44.9538 29.2808 44.8476C31.5432 44.4476 33.1619 43.3164 33.8368 41.6728L34.9055 39.0604C35.093 39.1354 35.2867 39.2041 35.4742 39.2604C36.2304 39.5104 37.0179 39.6416 37.8116 39.6478C39.0428 39.6478 40.1302 39.2854 40.9864 38.5666L43.2863 36.6355C44.6487 35.5043 45.2299 33.6169 44.9174 31.342L44.9175 31.3422ZM32.7804 19.7931L32.8679 19.9056C33.5241 20.7681 33.7428 21.918 33.5053 23.2179L32.4679 21.8555C32.6741 21.193 32.7741 20.4993 32.7804 19.7931V19.7931ZM32.0554 22.9742L33.1679 24.4366L33.1491 24.4929C32.8929 25.1678 32.5617 25.8178 32.1679 26.424L30.9867 24.8741C31.4054 24.2804 31.7616 23.6429 32.0554 22.9742L32.0554 22.9742ZM34.4365 35.5924L32.9304 36.8611C32.1054 36.2736 31.3492 35.5924 30.6743 34.8362L32.2055 33.5487C32.8804 34.3049 33.6241 34.9924 34.4366 35.5924H34.4365ZM31.5617 27.274C30.9367 28.0677 30.218 28.7926 29.4306 29.4301L28.2181 27.8427C28.6493 27.4927 30.1242 26.0053 30.3618 25.7115L31.5617 27.274ZM28.5931 33.7988C28.8869 34.2363 29.1993 34.655 29.5368 35.055C29.3119 35.5674 28.8869 35.9611 28.3619 36.1424C28.3807 36.1799 28.3994 36.2174 28.4182 36.2611C28.8432 37.2798 28.3682 38.4548 27.3495 38.8797C26.862 39.086 26.3121 39.086 25.8183 38.886L25.3558 38.6985L24.9746 39.6235L24.0496 39.2422L24.4309 38.3173L23.4996 37.936L23.1184 38.861L22.1934 38.4798L22.5747 37.5548L21.6497 37.1736L22.0309 36.2486L22.9559 36.6298L24.4121 33.0738C24.8245 32.9738 25.237 32.855 25.637 32.7175L25.0183 34.23L27.3307 35.1737C27.8432 35.3799 28.4244 35.1362 28.6369 34.63C28.7431 34.3612 28.7244 34.055 28.5931 33.7988L28.5931 33.7988ZM21.7186 30.8552C22.4373 30.7489 23.1436 30.5739 23.831 30.3302L25.0122 31.8801C24.3248 32.1051 23.6123 32.2488 22.8936 32.3176C22.8748 32.3176 22.8561 32.3176 22.8373 32.3238L21.7186 30.8552ZM25.9934 31.5114L24.7997 29.9427C25.7246 29.5302 26.6058 29.0302 27.4246 28.4428L28.637 30.0302C27.812 30.6239 26.9246 31.1176 25.9934 31.5114ZM18.2623 26.7116L21.3122 19.9868C21.3809 19.8368 21.5247 19.7243 21.6872 19.6993L28.9805 18.5432C29.2555 18.4994 29.5117 18.6869 29.5554 18.9556C29.5679 19.0494 29.5554 19.1494 29.5179 19.2431L26.4681 25.9679C26.3994 26.1179 26.2556 26.2304 26.0931 26.2554L18.7935 27.4116C18.5185 27.4553 18.2623 27.2678 18.2186 26.9991C18.2061 26.8991 18.2186 26.7991 18.2623 26.7116H18.2623ZM21.5747 32.3113C20.256 32.1926 19.2061 31.6801 18.5498 30.8176L18.4623 30.7051C19.0873 30.8801 19.731 30.9614 20.3747 30.9551H20.5372L21.5747 32.3113ZM16.2562 34.4862L16.3125 34.3549C16.4937 35.0299 16.7749 35.6799 17.1499 36.2736L16.4999 37.8485C15.9312 36.6548 15.8437 35.4861 16.2562 34.4861L16.2562 34.4862ZM18.6186 40.5922C18.0749 40.1109 17.5936 39.5735 17.1687 38.986C17.1562 38.9673 17.1437 38.9548 17.1374 38.936L17.8312 37.2361C18.2874 37.8048 18.7999 38.3235 19.3561 38.7922L18.6186 40.5922ZM22.0435 42.7858C21.1185 42.3733 20.2436 41.8608 19.4311 41.2546L20.1748 39.4297C20.9998 40.0172 21.8747 40.5234 22.7997 40.9296L22.0435 42.7858ZM25.9058 43.9045C24.8996 43.767 23.9184 43.517 22.9684 43.1608L23.7246 41.3109C24.6684 41.6671 25.6496 41.9233 26.6495 42.0796L25.9058 43.9045ZM29.1618 43.8608C29.1431 43.867 29.1243 43.867 29.1056 43.8733C28.3931 43.9982 27.6682 44.042 26.9432 44.0045L27.6806 42.2046C27.9806 42.2296 28.2806 42.2358 28.5744 42.2358C29.0056 42.2358 29.4305 42.2108 29.8556 42.1608L29.1618 43.8608ZM29.4368 33.255C29.4118 33.2175 29.3868 33.18 29.3618 33.1488H29.3681H29.3618C28.9931 32.5925 28.6619 32.0113 28.3806 31.4051C28.8119 31.1426 29.2306 30.8489 29.6431 30.5364C29.7493 30.4551 29.8556 30.3739 29.9618 30.2864C30.4118 31.1738 30.943 32.0113 31.5617 32.7863L30.0305 34.0737C29.8243 33.805 29.6243 33.53 29.4368 33.255L29.4368 33.255ZM32.9116 41.2986C32.4991 42.3048 31.6179 43.0672 30.3805 43.5297L31.0305 41.9486C31.7117 41.7861 32.3679 41.5236 32.9678 41.1673L32.9116 41.2986ZM35.7802 38.3175C35.0928 38.0925 34.4303 37.7925 33.8053 37.4301L35.2928 36.1801C35.9115 36.5676 36.5614 36.8926 37.2364 37.155L35.8303 38.3362C35.8178 38.33 35.799 38.3237 35.7803 38.3175L35.7802 38.3175ZM40.3425 37.8113C39.5113 38.5112 38.3739 38.78 37.0614 38.605L38.3676 37.5051C38.9363 37.6488 39.5175 37.7238 40.105 37.7238C40.2237 37.7238 40.3362 37.7175 40.4487 37.7113L40.3425 37.8113ZM41.9862 29.7928C41.9424 30.324 41.6862 30.8115 41.28 31.149C40.9238 31.449 40.4675 31.6177 39.9988 31.6177C39.9425 31.6177 39.8801 31.6177 39.8238 31.6115C38.8801 31.5302 38.1177 30.7928 38.0114 29.849L36.974 29.549L36.749 29.7365C37.2239 30.7303 36.8052 31.9239 35.8052 32.3989C34.8053 32.8739 33.6179 32.4552 33.1429 31.4552C32.6679 30.4615 33.0866 29.2678 34.0866 28.7928C34.7428 28.4803 35.5178 28.5491 36.1052 28.9678L36.3302 28.7803L36.2115 27.7054C35.1553 27.3929 34.5553 26.2804 34.8678 25.2243C35.1802 24.1681 36.2927 23.5681 37.3489 23.8806C38.4051 24.193 39.005 25.3055 38.6926 26.3617C38.4864 27.0554 37.9239 27.5804 37.2177 27.7366L37.3114 28.5991L38.1427 28.8428C38.5676 27.8241 39.7426 27.3429 40.7613 27.7679C41.5675 28.1116 42.0612 28.9303 41.9862 29.7928L41.9862 29.7928Z" fill="white"/>
<path d="M26.9499 36.1043L24.6375 35.1606L23.875 37.0105L26.1874 37.9542C26.6999 38.1604 27.2811 37.9167 27.4936 37.4042C27.706 36.898 27.4561 36.3168 26.9498 36.1043H26.9499Z" fill="white"/>
<path d="M37.7732 25.8797C37.8232 25.3297 37.4107 24.8422 36.8607 24.7985C36.3107 24.7547 35.8233 25.1609 35.7795 25.7109C35.7295 26.2609 36.142 26.7484 36.692 26.7921C36.9545 26.8171 37.2169 26.7296 37.4232 26.5609C37.6232 26.3859 37.7482 26.1422 37.7732 25.8797V25.8797Z" fill="white"/>
<path d="M21.5003 21.9924L19.9941 25.3173L21.7628 23.9674L21.5003 21.9924Z" fill="white"/>
<path d="M20.5996 26.111L24.2057 25.5423L22.3683 24.7611L20.5996 26.111Z" fill="white"/>
<path d="M27.174 19.8428L22.3242 20.6115L22.6805 23.2676L27.174 19.8428Z" fill="white"/>
<path d="M25.7557 25.1111L27.7807 20.6364L23.2871 24.0674L25.7557 25.1111Z" fill="white"/>
<path d="M29.3672 33.1422C29.3922 33.1796 29.4109 33.2171 29.4359 33.2546C29.4109 33.2172 29.3922 33.1797 29.3672 33.1422Z" fill="white"/>
</svg>
