<svg width="40" height="40" viewBox="0 0 40 40" fill="none" xmlns="http://www.w3.org/2000/svg">
<rect width="40" height="40" rx="5" fill="#8932F8"/>
<path d="M16.0744 14.195C16.0744 13.0823 16.5164 12.0153 17.3031 11.2287C18.0899 10.442 19.1568 10 20.2694 10C21.382 10 22.449 10.442 23.2357 11.2287C24.0223 12.0155 24.4643 13.0824 24.4643 14.195C24.4643 15.3076 24.0223 16.3746 23.2357 17.1613C22.449 17.9479 21.3819 18.3899 20.2694 18.3899C19.1571 18.3887 18.0909 17.9463 17.3045 17.1598C16.518 16.3735 16.0757 15.3071 16.0744 14.195L16.0744 14.195ZM20.2694 19.9143C17.8119 19.9172 15.456 20.8946 13.718 22.6323C11.98 24.3701 11.0028 26.726 11 29.1837C11 29.4003 11.0861 29.6078 11.2392 29.761C11.3922 29.914 11.5999 30 11.8164 30H28.722C28.9385 30 29.1462 29.914 29.2993 29.761C29.4523 29.6078 29.5384 29.4003 29.5384 29.1837C29.5356 26.7262 28.5582 24.3703 26.8204 22.6323C25.0827 20.8944 22.7268 19.9172 20.269 19.9143H20.2694Z" fill="white"/>
</svg>
