<svg width="60" height="60" viewBox="0 0 60 60" fill="none" xmlns="http://www.w3.org/2000/svg">
<rect width="60" height="60" rx="10" fill="#26ABF5"/>
<path d="M29.9702 15.0006C24.1468 15.0006 19.4082 19.7385 19.4082 25.5625C19.4082 27.926 20.2165 30.2501 21.6871 32.109L29.9707 42.5238L38.2581 32.104C39.725 30.2499 40.5332 27.9251 40.5332 25.5614C40.5327 19.738 35.7953 15 29.9706 15L29.9702 15.0006ZM29.9702 29.5C27.7995 29.5 26.0328 27.7333 26.0328 25.5626C26.0328 23.391 27.7995 21.6252 29.9702 21.6252C32.1417 21.6252 33.9076 23.391 33.9076 25.5626C33.9076 27.7333 32.1417 29.5 29.9702 29.5Z" fill="white"/>
<path d="M30.133 44.0971C34.7827 44.0825 38.5258 43.4503 38.5258 42.6719C38.5258 42.0227 35.9196 41.4748 32.3557 41.3026L33.0728 40.401C39.2948 40.6362 43.9402 41.5635 43.9402 42.6716C43.9402 43.9575 37.6859 45 29.9704 45C22.2549 45 16 43.9576 16 42.6716C16 41.5634 20.6454 40.636 26.8675 40.401L27.5846 41.3026C24.0208 41.4748 21.4144 42.0225 21.4144 42.6719C21.4144 43.4504 25.1577 44.0826 29.8072 44.0971H30.133Z" fill="white"/>
</svg>
