<svg width="40" height="40" viewBox="0 0 40 40" fill="none" xmlns="http://www.w3.org/2000/svg">
<rect width="40" height="40" rx="5" fill="#5E36FB"/>
<path d="M14.432 22.314C14.1138 21.1377 13.9244 19.7964 13.8922 18.3623L10.2109 18.3625C10.3116 20.4007 11.1495 22.2497 12.4704 23.6395C13.0705 23.1076 13.7272 22.6646 14.4321 22.3141L14.432 22.314Z" fill="white"/>
<path d="M10.209 17.5561H13.8907C13.923 16.118 14.1123 14.7767 14.4305 13.6006C13.7257 13.2501 13.069 12.8071 12.4689 12.2754C11.1475 13.6649 10.3097 15.5138 10.209 17.556L10.209 17.5561Z" fill="white"/>
<path d="M13.0527 24.1946C13.959 24.9801 15.0346 25.5682 16.2193 25.9025C15.5949 25.2217 15.0628 24.2554 14.668 23.0908C14.092 23.389 13.5521 23.7636 13.0527 24.1946Z" fill="white"/>
<path d="M14.668 12.8233C15.0628 11.6588 15.5949 10.6964 16.2193 10.0117C15.0346 10.3461 13.959 10.9341 13.0527 11.7197C13.5521 12.1502 14.092 12.5252 14.668 12.8232V12.8233Z" fill="white"/>
<path d="M15.418 13.1619C16.2483 13.4918 17.1339 13.677 18.0446 13.7217V9.75391C16.9772 10.0156 16.0307 11.313 15.418 13.1619Z" fill="white"/>
<path d="M14.7012 17.557H18.045V14.5277C17.058 14.4829 16.095 14.286 15.1887 13.9355C14.9071 15.0234 14.7334 16.2559 14.7012 17.557H14.7012Z" fill="white"/>
<path d="M15.1868 21.9792C16.093 21.6287 17.0563 21.4313 18.043 21.3875V18.3623H14.6992C14.7315 19.6595 14.9051 20.8916 15.1868 21.9792L15.1868 21.9792Z" fill="white"/>
<path d="M18.0446 26.1651V22.1934C17.1339 22.2377 16.2481 22.4229 15.418 22.7532C16.0305 24.6021 16.9766 25.8997 18.0446 26.1651Z" fill="white"/>
<path d="M18.8496 22.1934V26.1647C19.8039 25.9269 20.7061 24.8516 21.335 23.1642L21.1658 22.6362C20.4201 22.3745 19.6431 22.2332 18.8496 22.1934L18.8496 22.1934Z" fill="white"/>
<path d="M18.8496 9.75391V13.7215C19.76 13.6768 20.6462 13.4915 21.4759 13.1617C20.8638 11.313 19.9171 10.0154 18.8496 9.75391Z" fill="white"/>
<path d="M22.1889 18.3623H18.8496V21.3875C19.607 21.4237 20.348 21.5442 21.0651 21.7617C21.1131 21.5483 21.2222 21.3469 21.3834 21.1861C21.5525 21.0286 21.7455 20.9202 21.951 20.8679C22.0921 20.0698 22.1728 19.2244 22.1889 18.3623L22.1889 18.3623Z" fill="white"/>
<path d="M21.7057 13.9355C20.7994 14.286 19.8361 14.483 18.8496 14.5272V17.5568H22.1889C22.1609 16.2557 21.9877 15.023 21.7057 13.9355H21.7057Z" fill="white"/>
<path d="M22.2251 12.8234C22.8011 12.5254 23.341 12.1504 23.8404 11.7197C22.9341 10.9341 21.8585 10.3461 20.6738 10.0117C21.2986 10.6968 21.8303 11.659 22.2251 12.8234Z" fill="white"/>
<path d="M22.4629 13.6011C22.7812 14.7774 22.9705 16.1187 23.0026 17.5567H26.6838C26.5831 15.5143 25.7453 13.6654 24.4244 12.2755C23.8244 12.8074 23.1678 13.2545 22.4629 13.6009L22.4629 13.6011Z" fill="white"/>
<path d="M21.71 24.3242C21.3959 24.9607 21.0372 25.4919 20.6465 25.9154C21.13 25.7824 21.6012 25.6088 22.0524 25.3878L21.71 24.3242Z" fill="white"/>
<path d="M22.7559 20.9398L25.7049 21.895C26.2929 20.811 26.6273 19.6069 26.6878 18.3622H22.9938C22.9779 19.248 22.9013 20.1104 22.7559 20.9399L22.7559 20.9398Z" fill="white"/>
<path d="M28.5254 29.7532C28.6302 29.7532 28.7351 29.7129 28.8113 29.6363L29.8344 28.6133C29.9915 28.4562 29.9915 28.2023 29.8344 28.0452L26.6885 24.9032L28.4408 24.3956C28.602 24.3472 28.7188 24.2067 28.7309 24.0376C28.7429 23.8685 28.6508 23.711 28.4972 23.6423L22.405 21.675C22.252 21.6025 22.0747 21.639 21.9538 21.7559C21.837 21.8727 21.8008 22.0535 21.8733 22.2067L23.8366 28.2994C23.9091 28.4523 24.0621 28.5487 24.2353 28.5371C24.4004 28.5246 24.5456 28.4078 24.5938 28.2467L25.0973 26.4944L28.2432 29.6364C28.3202 29.7132 28.4248 29.7534 28.5255 29.7534L28.5254 29.7532Z" fill="white"/>
</svg>
