<svg width="60" height="60" viewBox="0 0 60 60" fill="none" xmlns="http://www.w3.org/2000/svg">
<rect width="60" height="60" rx="10" fill="#8932F8"/>
<path d="M18.9794 32.0519H41.8055C43.2209 32.0519 43.7574 31.2025 43.9214 30.845C44.0853 30.4875 44.3684 29.5173 43.4298 28.4461L32.4936 15.9152C31.4207 14.6949 29.3647 14.6949 28.2918 15.9152L17.3411 28.4461C16.4171 29.519 16.7005 30.4875 16.8641 30.845C17.0278 31.2028 17.5642 32.0519 18.9797 32.0519H18.9794Z" fill="white"/>
<path d="M41.8059 34.5704H18.9799C17.341 34.5704 16 35.8963 16 37.5503V42.0201C16 43.6591 17.341 45 18.9799 45H41.8059C43.4449 45 44.7858 43.6591 44.7858 42.0201V37.5503C44.7858 35.8963 43.4449 34.5704 41.8059 34.5704Z" fill="white"/>
</svg>
