<svg width="60" height="60" viewBox="0 0 60 60" fill="none" xmlns="http://www.w3.org/2000/svg">
<rect width="60" height="60" rx="10" fill="#F5377B"/>
<path d="M41.0788 21.3496C39.2825 20.0403 37.117 19.3348 34.894 19.3348C32.671 19.3348 30.5056 20.0403 28.7092 21.3496C28.3438 21.6164 27.9965 21.907 27.6693 22.2197C25.0347 20.9108 21.9102 21.0575 19.4103 22.6074C16.9098 24.1573 15.3887 26.89 15.3887 29.8316C15.3887 32.7734 16.9098 35.5061 19.4103 37.0557C21.9107 38.6057 25.0348 38.7523 27.6693 37.4437C28.0251 37.7852 28.4061 38.0992 28.8092 38.3836C30.5865 39.6473 32.7132 40.3263 34.894 40.3263C37.0748 40.3263 39.2014 39.6473 40.9788 38.3836C42.7923 37.0923 44.1485 35.2583 44.8513 33.1459C45.5545 31.0335 45.5678 28.7526 44.8897 26.632C44.2114 24.5116 42.8769 22.6617 41.0788 21.3492L41.0788 21.3496ZM16.395 29.8492C16.3964 27.3114 17.6811 24.9465 19.8091 23.5638C21.9373 22.1815 24.6202 21.969 26.9396 22.9993C25.3008 24.9054 24.398 27.3352 24.3946 29.8492V30.2392L22.8947 28.3493L21.7448 29.7843L19.3949 26.8494L16.4902 30.9943C16.4306 30.6153 16.3989 30.2327 16.3951 29.8492L16.395 29.8492ZM23.8946 37.3487C22.2556 37.347 20.6622 36.8082 19.3585 35.8149C18.0545 34.8216 17.1122 33.4286 16.6749 31.849H23.3945L22.5946 30.8491H24.4494C24.6578 33.0106 25.5313 35.0542 26.9492 36.6991C25.9884 37.1287 24.9471 37.3502 23.8945 37.349L23.8946 37.3487ZM27.3944 30.3491H26.3945V29.3492H27.3944V30.3491ZM34.394 21.3496H35.394V22.3496H34.394V21.3496ZM29.2394 23.4845L29.9443 24.1946L29.2394 24.8994L28.5294 24.1946L29.2394 23.4845ZM29.2394 36.2136L28.5294 35.5035L29.2394 34.7987L29.9443 35.5035L29.2394 36.2136ZM35.3939 38.3485H34.394V37.3485H35.3939V38.3485ZM34.8939 35.3486C33.7876 35.348 32.707 35.0136 31.7937 34.3891C30.8803 33.7648 30.1765 32.8796 29.7741 31.8488H30.689L32.039 33.2037H32.0392C32.1334 33.2974 32.2613 33.3494 32.3941 33.3487H33.484C33.6424 33.7972 34.0042 34.1438 34.4591 34.2831C34.914 34.4221 35.4077 34.3376 35.7901 34.0548C36.1724 33.7717 36.3981 33.3245 36.3981 32.8488C36.3981 32.3732 36.1724 31.9259 35.7901 31.6429C35.4077 31.3601 34.914 31.2755 34.4591 31.4146C34.0042 31.5538 33.6424 31.9005 33.484 32.3489H32.599L31.2491 30.9941C31.1549 30.9003 31.027 30.8483 30.8942 30.849H29.4893C29.4594 30.684 29.4344 30.5191 29.4192 30.349H35.4641C35.6277 30.9829 36.0913 31.4965 36.7048 31.7241C37.3186 31.9518 38.005 31.8645 38.5425 31.4907C39.0799 31.1168 39.4002 30.5037 39.4002 29.849C39.4002 29.1944 39.0799 28.5812 38.5425 28.2074C38.005 27.8336 37.3186 27.7463 36.7048 27.9739C36.0913 28.2016 35.6276 28.7152 35.4641 29.3491H29.4192C29.4192 29.179 29.4592 29.014 29.4893 28.8491H30.8942C31.027 28.8498 31.1549 28.7978 31.2491 28.704L32.599 27.3492H33.484C33.6424 27.7976 34.0042 28.1442 34.4591 28.2835C34.914 28.4226 35.4077 28.338 35.7901 28.0552C36.1724 27.7722 36.3981 27.3249 36.3981 26.8493C36.3981 26.3736 36.1724 25.9263 35.7901 25.6433C35.4077 25.3605 34.914 25.2759 34.4591 25.415C34.0042 25.5543 33.6424 25.9009 33.484 26.3493H32.3941C32.2613 26.3487 32.1334 26.4007 32.0392 26.4944L30.6893 27.8493H29.7741C30.2618 26.6 31.189 25.5721 32.3813 24.9588C33.5739 24.3452 34.9493 24.1885 36.2492 24.5182C37.5489 24.8476 38.6835 25.6409 39.4396 26.7484C40.1956 27.8557 40.5211 29.2014 40.3546 30.5319C40.188 31.8626 39.5412 33.0865 38.5355 33.9734C37.5299 34.8607 36.2349 35.3497 34.8939 35.3488L34.8939 35.3486ZM40.5486 36.2136L39.8437 35.5035L40.5486 34.7987L41.2586 35.5035L40.5486 36.2136ZM40.5486 24.8993L39.8437 24.1944L40.5486 23.4844L41.2586 24.1944L40.5486 24.8993ZM43.3935 30.349H42.3935V29.3491H43.3935V30.349Z" fill="white"/>
<path d="M42.1441 40.0235L41.5642 39.2135C39.6166 40.6002 37.2852 41.3453 34.8943 41.3453C32.5034 41.3453 30.1722 40.6002 28.2244 39.2135L27.6445 40.0235C29.7594 41.5357 32.2943 42.3485 34.8944 42.3485C37.4946 42.3485 40.0292 41.5356 42.1443 40.0235H42.1441Z" fill="white"/>
<path d="M28.1335 20.5548C30.0943 19.1268 32.4573 18.3574 34.8828 18.3574C37.3083 18.3574 39.6718 19.1268 41.6322 20.5548L42.2221 19.7448V19.745C40.0862 18.1922 37.5134 17.3559 34.8728 17.3559C32.232 17.3559 29.6592 18.1923 27.5234 19.745L28.1335 20.5548Z" fill="white"/>
<path d="M24.3944 24.8494C24.3944 25.6777 23.7227 26.3494 22.8944 26.3494C22.0662 26.3494 21.3945 25.6777 21.3945 24.8494C21.3945 24.0211 22.0662 23.3495 22.8944 23.3495C23.7227 23.3495 24.3944 24.0211 24.3944 24.8494Z" fill="white"/>
</svg>
