<svg width="60" height="60" viewBox="0 0 60 60" fill="none" xmlns="http://www.w3.org/2000/svg">
<rect width="60" height="60" rx="10" fill="#F237F5"/>
<path d="M35.1393 15C32.2763 15 29.9628 17.3108 29.9628 20.1693C29.9628 21.5868 30.5327 22.8663 31.4561 23.8004H38.8219C39.7455 22.8665 40.3154 21.5868 40.3154 20.1693C40.3154 17.3108 38.0019 15 35.1389 15H35.1393ZM35.1346 16.1862V16.1864C35.2228 16.1852 35.3075 16.2195 35.3699 16.2819C35.4323 16.344 35.4666 16.429 35.4656 16.517V16.8119C36.2563 16.9481 36.8835 17.5698 36.8835 18.3518H36.8833C36.8861 18.44 36.853 18.5256 36.7917 18.589C36.7302 18.6524 36.6456 18.6881 36.5574 18.6881C36.4692 18.6881 36.3847 18.6524 36.3232 18.589C36.2617 18.5256 36.2286 18.44 36.2314 18.3518C36.2314 17.867 35.7682 17.4354 35.1395 17.4354C34.5108 17.4354 34.0476 17.867 34.0476 18.3518C34.0476 18.8365 34.5108 19.2674 35.1395 19.2674C35.144 19.2677 35.1487 19.2679 35.1532 19.2681C36.0846 19.2751 36.8833 19.9529 36.8833 20.8357C36.8833 21.618 36.2563 22.2394 35.4653 22.3756V22.8183L35.4655 22.8185C35.4683 22.9067 35.435 22.9923 35.3737 23.0557C35.3122 23.1189 35.2276 23.1548 35.1394 23.1548C35.0512 23.1548 34.9667 23.1189 34.9054 23.0557C34.8439 22.9923 34.8108 22.9067 34.8136 22.8185V22.3758C34.0228 22.2396 33.3958 21.6179 33.3958 20.8359C33.3924 20.7473 33.4253 20.6613 33.4868 20.5974C33.5483 20.5336 33.6331 20.4975 33.7217 20.4975C33.8103 20.4975 33.8951 20.5336 33.9566 20.5974C34.0181 20.6613 34.0508 20.7473 34.0476 20.8359C34.0476 21.3207 34.5108 21.7523 35.1394 21.7523C35.7681 21.7523 36.2313 21.3207 36.2313 20.8359C36.2313 20.3512 35.7681 19.9203 35.1394 19.9203C35.1347 19.92 35.1298 19.9198 35.1251 19.9196C34.1939 19.9126 33.3958 19.2346 33.3958 18.352C33.3958 17.5698 34.0228 16.9483 34.8136 16.8121V16.517C34.811 16.337 34.9547 16.189 35.1348 16.1864L35.1346 16.1862ZM31.209 24.3092C30.7349 24.3092 30.3619 24.6304 30.2485 25.0645H33.8313C33.8441 25.0621 33.8569 25.0604 33.87 25.06C33.8858 25.06 33.9016 25.0615 33.9169 25.0645H36.3626C36.3755 25.0621 36.3885 25.0604 36.4015 25.06C36.4171 25.06 36.4329 25.0615 36.4483 25.0645H40.0302C39.9168 24.6304 39.5438 24.3092 39.0697 24.3092H31.209ZM34.1279 25.573V31.676H36.1511V25.573H34.1279ZM29.6448 29.0153C29.304 29.0153 28.9651 29.1441 28.7022 29.4065L25.9742 32.1307V32.1309C25.9727 32.1324 25.971 32.1339 25.9695 32.1356C25.8918 32.2182 25.7765 32.2545 25.6652 32.2315H24.4929V41.784H25.6913C25.706 41.7819 25.7208 41.7808 25.7355 41.7806C25.8181 41.7806 25.8976 41.812 25.9578 41.8684C25.9587 41.8692 25.9593 41.8699 25.9601 41.8707C25.9634 41.8733 25.9663 41.876 25.9693 41.8788L28.7025 44.6086C28.9653 44.8712 29.3042 45 29.645 45H29.6532H38.9099C39.6541 45 40.2425 44.4117 40.2425 43.6692C40.2425 42.9267 39.6541 42.339 38.9099 42.339H36.5375L36.5373 42.3392C36.4506 42.3394 36.3675 42.3051 36.3062 42.244C36.2447 42.1827 36.2103 42.0996 36.2103 42.0129C36.2103 41.9262 36.2447 41.8432 36.3062 41.7821C36.3675 41.7208 36.4506 41.6864 36.5373 41.6866H39.696C40.4229 41.6866 41.0285 41.0257 41.0285 40.2832C41.0285 39.5407 40.44 38.9531 39.696 38.9531H36.5373C36.4502 38.9539 36.3665 38.92 36.3045 38.8587C36.2426 38.7974 36.2078 38.7141 36.2078 38.627C36.2078 38.5399 36.2426 38.4564 36.3045 38.3951C36.3665 38.3338 36.4502 38.2998 36.5373 38.3007H40.4823C41.2265 38.3007 41.8148 37.7128 41.8148 36.9705C41.8148 36.228 41.2265 35.6404 40.4823 35.6404H36.5373C36.3586 35.6384 36.2144 35.493 36.2144 35.3141C36.2144 35.1353 36.3586 34.9897 36.5373 34.988H40.4823C41.2265 34.988 41.8148 34.4001 41.8148 33.6578C41.8148 32.9153 41.2265 32.3272 40.4823 32.3272H32.0122V32.327C31.924 32.3298 31.8385 32.2967 31.7751 32.2354C31.7117 32.1739 31.6758 32.0893 31.6758 32.0011C31.6758 31.9127 31.7117 31.8284 31.7751 31.7669C31.8386 31.7054 31.924 31.6723 32.0122 31.6751H33.6197V29.0141L29.6448 29.0153ZM36.6597 29.0153V31.6763H37.3379C38.0821 31.6763 38.6706 31.0879 38.6706 30.3455C38.6706 29.603 38.0821 29.0153 37.3379 29.0153H36.6597ZM19 29.9485V44.0673L21.0915 43.6458V39.5974C21.0889 39.4176 21.2324 39.2694 21.4124 39.2667C21.5006 39.2652 21.5856 39.2998 21.6482 39.3619C21.7105 39.4243 21.7451 39.5092 21.7438 39.5974V43.5142L22.5021 43.3613C22.8906 43.283 23.2369 43.1232 23.472 42.9078C23.7071 42.6923 23.8404 42.4354 23.8404 42.0826V31.9331C23.8404 31.5803 23.7071 31.3238 23.472 31.1084C23.2369 30.8929 22.8905 30.7332 22.5021 30.6548L19 29.9485ZM21.4124 36.6774C21.5006 36.6762 21.5856 36.7105 21.6479 36.7727C21.7105 36.835 21.7449 36.92 21.7438 37.0082V37.8716C21.7447 37.9585 21.7107 38.0424 21.6494 38.1043C21.5882 38.1663 21.5047 38.2011 21.4175 38.2011C21.3304 38.2011 21.2469 38.1663 21.1858 38.1043C21.1245 38.0424 21.0906 37.9585 21.0914 37.8716V37.0082C21.0889 36.8282 21.2326 36.6802 21.4124 36.6774H21.4124Z" fill="white"/>
</svg>
