<svg width="40" height="40" viewBox="0 0 40 40" fill="none" xmlns="http://www.w3.org/2000/svg">
<rect width="40" height="40" rx="5" fill="#26ABF5"/>
<path d="M27.2846 15.7143C27.2846 15.6429 27.2846 15.5 27.2132 15.4286C27.2132 15.3571 27.1417 15.2857 27.0703 15.2143L22.0703 10.2143C21.9989 10.1429 21.9275 10.0714 21.856 10.0714C21.7846 10 21.6417 10 21.5703 10V15.7143H27.2846Z" fill="white"/>
<path d="M20.8571 17.1429C20.4286 17.1429 20.1429 16.8571 20.1429 16.4286V10H15.1429C13.9286 10 13 10.9286 13 12.1429V27.8571C13 29.0714 13.9286 30 15.1429 30H25.1429C26.3571 30 27.2857 29.0714 27.2857 27.8571V17.1429H20.8571ZM20.1429 19.2857C21.3571 19.2857 22.2857 20.2143 22.2857 21.4286C22.2857 22.6429 21.3571 23.5714 20.1429 23.5714C18.9286 23.5714 18 22.6429 18 21.4286C18 20.2143 18.9286 19.2857 20.1429 19.2857ZM23 28.5714H17.2857C16.8571 28.5714 16.5714 28.2857 16.5714 27.8571C16.5714 25.8571 18.1429 24.2857 20.1429 24.2857C22.1429 24.2857 23.7143 25.8571 23.7143 27.8571C23.7143 28.2857 23.4286 28.5714 23 28.5714Z" fill="white"/>
</svg>
