<svg width="60" height="60" viewBox="0 0 60 60" fill="none" xmlns="http://www.w3.org/2000/svg">
<rect width="60" height="60" rx="10" fill="#5E36FB"/>
<path d="M29.1492 36.0486C29.8058 35.392 29.7109 34.2283 28.9371 33.4547L28.3311 32.8485L25.9492 35.2304L26.5554 35.8366C27.3288 36.6104 28.4925 36.7055 29.1491 36.0487L29.1492 36.0486Z" fill="white"/>
<path d="M28.3309 30.4914L30.7126 28.1097L30.1064 27.5036C29.3329 26.73 28.1693 26.6349 27.5127 27.2913C26.8561 27.9479 26.951 29.1114 27.7248 29.8852L28.3309 30.4914Z" fill="white"/>
<path d="M26.1266 44.335C26.5526 44.761 27.1301 45.0002 27.7326 45.0002C28.3348 45.0002 28.9123 44.761 29.3383 44.335L43.5438 30.1295C44.3207 29.3524 44.7727 28.3092 44.8082 27.211L44.9977 21.3641C45.0363 20.1746 44.5806 19.0219 43.7389 18.1803L41.8197 16.2611C40.978 15.4194 39.8254 14.9636 38.6359 15.0023L32.789 15.1918C31.6908 15.2273 30.6475 15.6794 29.8707 16.4562L15.6652 30.6617C15.2393 31.0876 15 31.6652 15 32.2676C15 32.8698 15.2393 33.4474 15.6652 33.8734L26.1266 44.335ZM35.7672 20.214C36.3001 19.6808 37.0232 19.3814 37.7773 19.3814C38.5313 19.3814 39.2542 19.6808 39.7874 20.214C40.3206 20.7471 40.62 21.4702 40.62 22.2241C40.62 22.9782 40.3206 23.7013 39.7874 24.2344C39.2543 24.7676 38.5313 25.0671 37.7773 25.0671C37.0232 25.0671 36.3001 24.7676 35.7672 24.2344C35.234 23.7013 34.9343 22.9782 34.9343 22.2241C34.9343 21.4703 35.234 20.7472 35.7672 20.214ZM22.173 31.4534L24.7713 34.0517L27.1533 31.6698L26.5473 31.0636C25.1239 29.6401 25.0287 27.4191 26.3353 26.1126C27.6418 24.8061 29.8626 24.9014 31.286 26.3249L31.892 26.9311L33.4438 25.3793L34.6224 26.5579L33.0706 28.1097L35.6687 30.7081L34.4901 31.8867L31.8917 29.2884L29.51 31.67L30.1162 32.2758C31.5397 33.6992 31.6348 35.9203 30.3283 37.2268C29.0216 38.5333 26.8005 38.4382 25.3773 37.0147L24.7713 36.4085L23.2193 37.9605L22.0407 36.7819L23.5925 35.2301L20.9944 32.632L22.173 31.4534Z" fill="white"/>
</svg>
