<svg width="40" height="40" viewBox="0 0 40 40" fill="none" xmlns="http://www.w3.org/2000/svg">
<rect width="40" height="40" rx="5" fill="#3662FB"/>
<path d="M20 10C17.3478 10 14.8043 11.0536 12.929 12.929C11.0536 14.8043 10 17.3479 10 20C10 22.6521 11.0536 25.1957 12.929 27.071C14.8043 28.9464 17.3479 30 20 30C22.6521 30 25.1957 28.9464 27.071 27.071C28.9464 25.1957 30 22.6521 30 20C30 17.3479 28.9464 14.8043 27.071 12.929C25.1957 11.0536 22.6521 10 20 10ZM26.4582 20.8331H20C19.779 20.8331 19.567 20.7454 19.4107 20.5891C19.2545 20.4329 19.1667 20.2209 19.1667 19.9999V13.5417C19.1667 13.244 19.3255 12.9689 19.5833 12.82C19.8411 12.6712 20.1589 12.6712 20.4167 12.82C20.6745 12.9689 20.8333 13.244 20.8333 13.5417V19.1666H26.4582C26.7559 19.1666 27.0311 19.3254 27.1799 19.5832C27.3288 19.841 27.3288 20.1588 27.1799 20.4166C27.0311 20.6745 26.756 20.8332 26.4582 20.8332L26.4582 20.8331Z" fill="white"/>
</svg>
