<svg width="60" height="60" viewBox="0 0 60 60" fill="none" xmlns="http://www.w3.org/2000/svg">
<rect width="60" height="60" rx="10" fill="#3662FB"/>
<path d="M16.4063 25.0312H39.9289L37.9658 26.7984L37.9685 26.8026C37.6831 27.06 37.4998 27.4289 37.4998 27.8441C37.4998 28.6209 38.1293 29.2504 38.906 29.2504C39.2674 29.2504 39.5941 29.1102 39.8435 28.8856L39.8469 28.8894L44.5344 24.6706L44.531 24.6665C44.8165 24.4091 44.9998 24.0397 44.9998 23.625C44.9998 23.2102 44.8165 22.8406 44.531 22.5835L44.5344 22.5797L39.8469 18.361L39.8435 18.3647C39.5941 18.1406 39.2674 18 38.906 18C38.1293 18 37.4998 18.6295 37.4998 19.4062C37.4998 19.821 37.6831 20.1906 37.9685 20.4477L37.9652 20.4515L39.9289 22.2187H16.4062C15.6295 22.2187 15 22.8482 15 23.625C15 24.4017 15.6295 25.0312 16.4062 25.0312L16.4063 25.0312ZM43.5938 34.4062H20.0711L22.0346 32.639L22.0315 32.6359C22.3173 32.3781 22.5002 32.0091 22.5002 31.5938C22.5002 30.817 21.8707 30.1875 21.094 30.1875C20.7321 30.1875 20.4059 30.3281 20.1565 30.5516L20.1531 30.5479L15.4656 34.7666L15.469 34.7704C15.1835 35.0288 15.0002 35.3977 15.0002 35.8125C15.0002 36.2272 15.1835 36.5962 15.469 36.8546L15.4656 36.8578L20.1531 41.0765L20.1565 41.0734C20.4059 41.2973 20.7326 41.4375 21.094 41.4375C21.8707 41.4375 22.5002 40.808 22.5002 40.0312C22.5002 39.6165 22.3169 39.2469 22.0315 38.9891L22.0348 38.9853L20.0711 37.2187H43.5938C44.3705 37.2187 45 36.5893 45 35.8125C45 35.0357 44.3705 34.4062 43.5938 34.4062L43.5938 34.4062Z" fill="white"/>
</svg>
