<svg width="60" height="60" viewBox="0 0 60 60" fill="none" xmlns="http://www.w3.org/2000/svg">
<rect width="60" height="60" rx="10" fill="#23E5F1"/>
<path d="M38.6171 38.7352L38.5571 38.5031C36.9388 34.5174 33.702 31.8084 29.9856 31.8084C26.2692 31.8084 23.0325 34.5171 21.4141 38.4642L21.3541 38.6963C21.3242 38.7738 21.3242 38.8898 21.3242 39.0059V39.9733C21.3242 40.5537 21.7139 41.0568 22.1634 41.0568H37.8378C38.2873 41.0568 38.677 40.5537 38.677 39.9733V39.0059C38.677 38.9287 38.6471 38.8124 38.6172 38.7352L38.6171 38.7352Z" fill="white"/>
<path d="M19.945 37.613L19.9749 37.4969C20.9039 35.2526 22.2227 33.4338 23.7812 32.1182C22.942 31.615 21.9828 31.3443 20.994 31.3443C18.4465 31.3443 16.1987 33.2405 15.0899 35.9878L15.0299 36.1425C15 36.2199 15 36.2588 15 36.336V36.9938C15 37.4195 15.2697 37.7291 15.5695 37.7291H19.8853L19.945 37.613Z" fill="white"/>
<path d="M23.7813 25.385C23.7813 27.3724 22.5335 28.9836 20.9942 28.9836C19.4549 28.9836 18.207 27.3724 18.207 25.385C18.207 23.3972 19.4549 21.7861 20.9942 21.7861C22.5335 21.7861 23.7813 23.3972 23.7813 25.385Z" fill="white"/>
<path d="M40.0258 37.613L39.9957 37.5358C39.0667 35.2914 37.748 33.4726 36.1895 32.157C37.0286 31.6538 37.9878 31.3831 38.9766 31.3831C41.554 31.3831 43.7719 33.2405 44.9107 35.988L44.9707 36.1427C45.0006 36.2202 45.0006 36.2974 45.0006 36.3363V36.9941C45.0006 37.4197 44.7309 37.7294 44.4311 37.7294L40.0857 37.7291L40.0258 37.613Z" fill="white"/>
<path d="M41.7637 25.385C41.7637 27.3724 40.5159 28.9836 38.9766 28.9836C37.4373 28.9836 36.1895 27.3724 36.1895 25.385C36.1895 23.3972 37.4373 21.7861 38.9766 21.7861C40.5159 21.7861 41.7637 23.3972 41.7637 25.385Z" fill="white"/>
<path d="M34.27 24.5723C34.27 27.6497 32.3379 30.1447 29.9544 30.1447C27.5708 30.1447 25.6387 27.6498 25.6387 24.5723C25.6387 21.4949 27.5708 19 29.9544 19C32.3379 19 34.27 21.4949 34.27 24.5723Z" fill="white"/>
</svg>
