<svg width="40" height="40" viewBox="0 0 40 40" fill="none" xmlns="http://www.w3.org/2000/svg">
<rect width="40" height="40" rx="5" fill="#F5377B"/>
<path d="M20.0015 17.0615C18.3549 17.0615 17.0156 18.4008 17.0156 20.0472C17.0156 21.6933 18.3549 23.0326 20.0015 23.0326C21.6477 23.0326 22.9869 21.6933 22.9869 20.047C22.9869 18.4008 21.6477 17.0615 20.0015 17.0615Z" fill="white"/>
<path d="M31.3078 19.7757C28.2997 15.4675 24.2836 13.0947 20.0001 13.0947C15.7163 13.0947 11.7008 15.4672 8.69344 19.7757L8.50391 20.0473L8.69344 20.3189C11.7012 24.6271 15.7167 26.9998 20.0001 26.9998H20.0005C24.2839 26.9998 28.3004 24.6271 31.3077 20.3189L31.4973 20.0473L31.3078 19.7757ZM20.0006 23.9824C17.8307 23.9824 16.0653 22.2172 16.0653 20.0473C16.0653 17.8776 17.8307 16.1124 20.0006 16.1124C22.1701 16.1124 23.9353 17.8776 23.9353 20.0475C23.9353 22.2172 22.1701 23.9824 20.0006 23.9824Z" fill="white"/>
</svg>
