<svg width="40" height="40" viewBox="0 0 40 40" fill="none" xmlns="http://www.w3.org/2000/svg">
<rect width="40" height="40" rx="5" fill="#F237F5"/>
<path d="M16.7737 14.0888C16.7737 15.467 15.6564 16.584 14.2784 16.584C12.9004 16.584 11.7832 15.467 11.7832 14.0888C11.7832 12.7108 12.9004 11.5938 14.2784 11.5938C15.6564 11.5938 16.7737 12.7108 16.7737 14.0888Z" fill="white"/>
<path d="M18.7895 22.0547C17.7338 21.4789 17.0621 20.3273 17.0621 19.0797C17.0621 18.9358 17.0621 18.7438 17.1101 18.5998C16.2945 18.1199 15.3347 17.832 14.327 17.832C11.7359 17.832 9.62471 19.6075 9.00078 22.0066C8.85683 22.4865 9.28868 22.9663 9.76858 22.9663H16.8703C17.398 22.5346 18.0698 22.2467 18.7896 22.0547H18.7895Z" fill="white"/>
<path d="M29.1545 14.0888C29.1545 15.467 28.0373 16.584 26.6593 16.584C25.2813 16.584 24.1641 15.467 24.1641 14.0888C24.1641 12.7108 25.2813 11.5938 26.6593 11.5938C28.0373 11.5938 29.1545 12.7108 29.1545 14.0888Z" fill="white"/>
<path d="M31.9848 21.9588C31.409 19.5596 29.2497 17.7842 26.7067 17.7842C25.699 17.7842 24.7394 18.0721 23.9235 18.552C23.9716 18.6959 23.9716 18.8399 23.9716 19.0319C23.9716 20.3274 23.2518 21.431 22.2441 22.0068C22.9639 22.1988 23.5877 22.4867 24.1636 22.9186H31.2653C31.697 22.9184 32.0808 22.4385 31.9849 21.9588H31.9848Z" fill="white"/>
<path d="M22.9631 19.0314C22.9631 20.4093 21.8459 21.5266 20.4679 21.5266C19.0899 21.5266 17.9727 20.4093 17.9727 19.0314C17.9727 17.6534 19.0899 16.5361 20.4679 16.5361C21.8459 16.5361 22.9631 17.6534 22.9631 19.0314Z" fill="white"/>
<path d="M20.4687 22.7744C17.8775 22.7744 15.7664 24.5499 15.1906 26.949C15.0947 27.4289 15.4785 27.9086 15.9584 27.9086H25.0274C25.5551 27.9086 25.9391 27.4288 25.7952 26.949C25.1711 24.5499 23.0599 22.7744 20.4689 22.7744H20.4687Z" fill="white"/>
</svg>
